<?xml version="1.0" encoding="UTF-8"?>
<svg version="1.1" xmlns="http://www.w3.org/2000/svg" width="2000" height="570">
<path d="M0 0 C51.81 0 103.62 0 157 0 C157 188.1 157 376.2 157 570 C105.19 570 53.38 570 0 570 C0 381.9 0 193.8 0 0 Z " fill="#FFFFFF" transform="translate(1807,0)"/>
<path d="M0 0 C51.81 0 103.62 0 157 0 C157 188.1 157 376.2 157 570 C105.19 570 53.38 570 0 570 C0 381.9 0 193.8 0 0 Z " fill="#FFFFFF" transform="translate(1617,0)"/>
<path d="M0 0 C51.48 0 102.96 0 156 0 C156 188.1 156 376.2 156 570 C104.52 570 53.04 570 0 570 C0 381.9 0 193.8 0 0 Z " fill="#FFFFFF" transform="translate(1428,0)"/>
<path d="M0 0 C2.1725849 2.69888726 1.80220613 4.97529026 1.68215942 8.32553101 C1.21411318 12.14996789 -0.11162347 15.35526702 -1.69741821 18.84207153 C-2.02544434 19.59938065 -2.35347046 20.35668976 -2.69143677 21.13694763 C-3.77526211 23.63121916 -4.88108943 26.11510472 -5.98648071 28.59988403 C-6.7619961 30.37680007 -7.53555705 32.15457024 -8.30728149 33.93313599 C-9.51448267 36.71471515 -10.72286851 39.49571191 -11.93713379 42.2742157 C-15.84870848 51.22748387 -19.62538751 60.23461197 -23.37982178 69.25466919 C-25.25301281 73.75326171 -27.13341451 78.2488365 -29.01382446 82.74441528 C-29.39074936 83.64576202 -29.76767426 84.54710876 -30.15602112 85.47576904 C-34.43115036 95.69331029 -38.73823369 105.89732952 -43.04898071 116.09988403 C-43.44211456 117.0304361 -43.83524841 117.96098816 -44.24029541 118.91973877 C-47.42878893 126.46637582 -50.61902768 134.01227476 -53.80935669 141.55813599 C-56.59838584 148.15503849 -59.38670433 154.75224075 -62.17398071 161.34988403 C-62.56471771 162.27473602 -62.95545471 163.19958801 -63.35803223 164.15246582 C-68.91498556 177.30824445 -74.445537 190.47486754 -79.95550537 203.65039062 C-81.09620716 206.37589066 -82.23911698 209.10045413 -83.38272095 211.82473755 C-87.80516439 222.36062346 -87.80516439 222.36062346 -92.13095093 232.93641663 C-92.87538385 234.77977223 -93.62709623 236.62018288 -94.37905884 238.46047974 C-95.23790265 240.56541941 -96.08456125 242.6754079 -96.91421509 244.79202271 C-102.44984148 258.26322976 -111.63523416 267.03834269 -124.90054321 272.68972778 C-133.08757341 275.81589926 -141.884346 276.96860613 -150.61148071 275.72488403 C-153.97686722 273.81657828 -155.31476722 272.53947039 -156.64318848 268.89247131 C-158.12399115 263.24493015 -158.63608259 257.41591712 -159.30728149 251.62942505 C-159.46363068 250.32142441 -159.61997986 249.01342377 -159.78106689 247.66578674 C-160.20756367 244.09666244 -160.62699977 240.5267404 -161.04513407 236.95662808 C-161.48409237 233.21921661 -161.92959382 229.48258527 -162.37438965 225.74586487 C-163.21474838 218.67761121 -164.04925509 211.60867959 -164.88164032 204.53948301 C-165.82996105 196.4881476 -166.78483539 188.43759369 -167.74024987 180.38709748 C-169.70459926 163.83388254 -171.66075247 147.27970982 -173.61148071 130.72488403 C-174.41169392 132.31337034 -175.21052953 133.90255067 -176.00878906 135.49201965 C-176.45378942 136.3769192 -176.89878979 137.26181875 -177.35727501 138.17353344 C-178.94556625 141.40449291 -180.34253934 144.6645084 -181.71304321 147.99441528 C-181.98700424 148.65641937 -182.26096527 149.31842346 -182.54322815 150.00048828 C-183.13441178 151.42974813 -183.7240284 152.859657 -184.31219482 154.29016113 C-185.94664669 158.26401566 -187.59434095 162.23238386 -189.24038696 166.20144653 C-189.59006027 167.0453746 -189.93973358 167.88930267 -190.30000305 168.75880432 C-195.3417357 180.91531468 -200.4662901 193.03728559 -205.60952759 205.15115356 C-206.41112596 207.04024326 -207.21255965 208.92940284 -208.01382446 210.81863403 C-208.40500458 211.74094818 -208.79618469 212.66326233 -209.19921875 213.61352539 C-211.39075703 218.79474026 -213.54613639 223.98855077 -215.65718079 229.20307922 C-216.88762252 232.24071082 -218.13221291 235.27245027 -219.37780762 238.30389404 C-219.93842981 239.68051373 -220.49177501 241.06012578 -221.0368042 242.44299316 C-226.16490341 255.44878342 -233.67356277 265.65066851 -246.61148071 271.72488403 C-256.22986971 275.11901711 -267.4374035 277.72004412 -277.61148071 275.72488403 C-282.47349982 272.19195244 -283.47789401 268.36638448 -284.61148071 262.72488403 C-284.99430538 260.20163927 -285.32956245 257.67081799 -285.62231445 255.13554382 C-285.74927623 254.05531563 -285.74927623 254.05531563 -285.8788029 252.95326465 C-286.1584436 250.56331584 -286.43060993 248.1725779 -286.70278931 245.7817688 C-286.90302063 244.057573 -287.10373235 242.33343294 -287.30488586 240.60934448 C-287.73619288 236.90427196 -288.16424659 233.19884332 -288.58979416 229.49310493 C-289.26573904 223.6082537 -289.94980965 217.72436408 -290.6350708 211.84059143 C-292.21474798 198.2665808 -293.7840734 184.69137733 -295.3529892 171.11611938 C-296.78649223 158.71310685 -298.2223117 146.31037417 -299.66677535 133.9086327 C-300.23466539 129.03068958 -300.80034399 124.15251252 -301.36057663 119.27368355 C-304.21109147 94.16059252 -304.21109147 94.16059252 -307.78189087 69.14260864 C-307.9354775 68.17508195 -308.08906414 67.20755526 -308.24730492 66.21070957 C-310.8181534 50.79434148 -317.31197615 37.93684628 -324.88882446 24.45144653 C-326.17666765 21.37454552 -325.38567254 18.87695076 -324.61148071 15.72488403 C-321.67478301 11.18700396 -318.06567612 8.96074503 -313.29898071 6.66238403 C-312.59765015 6.31949341 -311.89631958 5.97660278 -311.17373657 5.62332153 C-302.11913082 1.35517087 -290.73573101 -3.19665735 -280.61148071 -1.27511597 C-273.24602341 1.39168754 -270.06007775 6.91039012 -266.61148071 13.72488403 C-257.10313017 35.84957782 -256.30891802 61.27858055 -254.04605103 84.96350098 C-253.62716319 89.32731258 -253.19772162 93.69008722 -252.76968384 98.05300903 C-251.88227218 107.11848577 -251.0079225 116.1851864 -250.13729858 125.25228882 C-249.61460465 130.69566118 -249.08913949 136.13876374 -248.56314087 141.58181763 C-246.5622053 162.29455667 -244.57743112 183.00879487 -242.61148071 203.72488403 C-240.02782933 201.14123265 -238.91042443 198.18620713 -237.47866821 194.88504028 C-237.01582932 193.83424538 -237.01582932 193.83424538 -236.54364014 192.76222229 C-235.87341677 191.2398774 -235.20519496 189.7166501 -234.53872681 188.19265747 C-232.73741167 184.07512691 -230.92035062 179.96455864 -229.10366821 175.85379028 C-228.72973938 175.00696686 -228.35581055 174.16014343 -227.97055054 173.28765869 C-224.25947687 164.89862588 -220.4438257 156.55903424 -216.61148071 148.22488403 C-212.49694 139.2691253 -208.40701535 130.30382078 -204.40054321 121.29910278 C-203.87955299 120.12902176 -203.87955299 120.12902176 -203.34803772 118.93530273 C-201.62939942 115.0689618 -199.92271978 111.19792531 -198.23574829 107.31765747 C-195.42962172 100.88595671 -192.61217753 94.56186989 -189.20913696 88.41629028 C-182.50520695 76.09456585 -181.80151668 67.81177035 -185.77163696 54.24050903 C-186.37082831 52.39732725 -186.98313071 50.55833041 -187.61148071 48.72488403 C-187.86655396 47.96498169 -188.1216272 47.20507935 -188.38442993 46.42214966 C-190.32595963 40.81649065 -192.76761049 35.4895147 -195.32632446 30.13894653 C-195.87417603 28.99168091 -196.42202759 27.84441528 -196.98648071 26.66238403 C-197.48921509 25.66078247 -197.99194946 24.65918091 -198.50991821 23.62722778 C-199.74080446 20.38414806 -199.98849223 18.16511412 -199.61148071 14.72488403 C-196.45798113 8.35378934 -190.0138989 5.05742332 -183.61148071 2.72488403 C-163.23134485 -3.46591046 -163.23134485 -3.46591046 -153.92398071 0.16238403 C-141.45320654 8.51463463 -139.30728906 27.22047031 -136.57371521 40.81382751 C-133.79437432 55.26646376 -132.22424894 69.87797796 -130.57352829 84.49253845 C-130.10576143 88.61540702 -129.62658885 92.73695218 -129.14883423 96.8586731 C-128.35716107 103.70120812 -127.57280657 110.54454756 -126.79312134 117.38845825 C-125.72495699 126.76093844 -124.63529684 136.13083297 -123.54118919 145.50031471 C-122.88577527 151.11954761 -122.2348858 156.73930569 -121.58404541 162.35906982 C-121.22944604 165.42073499 -120.87335703 168.48222141 -120.51611328 171.5435791 C-120.09781018 175.13119473 -119.68420429 178.71932278 -119.27414703 182.30788994 C-119.05293855 184.23451634 -118.82725645 186.16062748 -118.60140991 188.0867157 C-117.92925388 194.00932484 -117.44252657 199.76407128 -117.61148071 205.72488403 C-116.95148071 205.72488403 -116.29148071 205.72488403 -115.61148071 205.72488403 C-115.44427017 205.13475021 -115.27705963 204.54461639 -115.1047821 203.93659973 C-113.16957088 197.28045225 -110.85207315 190.8341885 -108.35757446 184.36941528 C-107.94441986 183.29002182 -107.53126526 182.21062836 -107.10559082 181.098526 C-105.75672096 177.57685713 -104.40283561 174.05713911 -103.04898071 170.53738403 C-102.10551049 168.07625707 -101.16239974 165.61499227 -100.21963501 163.15359497 C-97.81720285 156.88286909 -95.41035227 150.61384821 -93.00222778 144.3453064 C-90.8577179 138.76267265 -88.71486156 133.17940488 -86.57241821 127.59597778 C-85.98193192 126.05724503 -85.98193192 126.05724503 -85.3795166 124.48742676 C-82.41277188 116.75429708 -79.45359178 109.01829413 -76.50042725 101.27996826 C-74.72155753 96.62056374 -72.93244597 91.96539637 -71.13000488 87.31506348 C-64.76573072 70.86845412 -60.34550342 56.20383144 -60.07608032 38.45535278 C-59.85938666 30.07048686 -57.77957285 22.91410259 -51.93569946 16.76394653 C-41.86922024 7.93251434 -13.23817407 -10.4749669 0 0 Z " fill="#FFFFFF" transform="translate(882.6114807128906,81.27511596679688)"/>
<path d="M0 0 C2.81273472 0.00315275 5.62440668 -0.02035313 8.43701172 -0.0456543 C23.78820376 -0.09924112 41.17839017 0.0374446 53.95654297 9.69067383 C58.95125975 14.68539061 60.13152651 19.43182869 60.58154297 26.30395508 C60.58154297 34.11960279 59.70646067 41.22983405 54.58154297 47.31567383 C52.58154297 49.31567383 52.58154297 49.31567383 50.72070312 49.42407227 C44.86917177 48.76919384 40.22524419 47.13557191 34.95654297 44.56567383 C26.96807478 40.84937186 19.04264227 37.79478596 10.58154297 35.31567383 C9.77330078 35.06946289 8.96505859 34.82325195 8.13232422 34.56958008 C-5.49236442 31.12179674 -22.4467837 31.726245 -34.77392578 38.63598633 C-41.99598844 43.59522635 -46.4539837 49.78807369 -48.41845703 58.31567383 C-49.4997134 70.53638537 -48.32542618 81.62451338 -40.27783203 91.42504883 C-29.14131614 102.74873305 -13.11619433 109.07089155 1.01904297 115.75317383 C29.57216103 129.28019876 29.57216103 129.28019876 40.58154297 139.31567383 C41.52513672 140.13938477 41.52513672 140.13938477 42.48779297 140.97973633 C53.49964037 151.17052493 59.82958838 165.65993381 60.78833008 180.52099609 C60.88545915 184.03858226 60.91039442 187.54679377 60.89404297 191.06567383 C60.88667114 192.93074585 60.88667114 192.93074585 60.87915039 194.83349609 C60.76962506 203.39276046 60.26171244 211.13410386 57.58154297 219.31567383 C57.08847656 220.92829102 57.08847656 220.92829102 56.58544922 222.57348633 C49.71276891 242.69212834 34.63853486 256.19670761 16.39404297 266.03442383 C3.88796859 272.16240028 -9.60304843 275.7786426 -23.41845703 277.31567383 C-24.34271484 277.4265332 -25.26697266 277.53739258 -26.21923828 277.65161133 C-52.69652425 280.36159634 -84.82928891 278.90312021 -107.31298828 263.05395508 C-114.00437982 257.52952236 -118.59637176 252.02398036 -120.10595703 243.37817383 C-120.90716905 234.68138153 -120.95632684 224.99514581 -116.41845703 217.31567383 C-113.03047546 215.05701945 -111.47551048 215.12343667 -107.53662109 215.7409668 C-103.94560434 216.71529292 -101.26014512 218.69458521 -98.29345703 220.87817383 C-96.98080198 221.79574996 -95.66564 222.70974894 -94.34814453 223.62036133 C-93.69168945 224.07636719 -93.03523437 224.53237305 -92.35888672 225.00219727 C-71.20836277 239.31898373 -48.15818527 248.47662655 -22.35107422 243.7253418 C-12.27389585 241.5892244 -3.99603126 237.35773675 2.58154297 229.31567383 C8.44139548 219.985571 7.82828459 207.31301118 5.95654297 196.80786133 C0.45085436 177.58710913 -21.46593163 167.22371687 -37.16455078 157.28442383 C-90.40857556 123.57318347 -90.40857556 123.57318347 -97.04736328 94.37426758 C-100.67052606 74.2752488 -97.9788241 52.47596923 -86.41845703 35.31567383 C-74.11420547 19.80075046 -58.61645626 10.18574992 -39.79345703 4.50317383 C-39.14997314 4.30820313 -38.50648926 4.11323242 -37.84350586 3.91235352 C-25.34520795 0.38890545 -12.89143853 -0.0301254 0 0 Z " fill="#FFFFFF" transform="translate(1096.41845703125,78.684326171875)"/>
<path d="M0 0 C1.1653125 -0.02578125 2.330625 -0.0515625 3.53125 -0.078125 C6.5 0.25 6.5 0.25 8.37890625 1.33203125 C11.5365557 6.73414233 10.05669514 15.58918592 8.80859375 21.5546875 C6.28883955 29.67272405 2.30785858 39.97426792 -5.5 44.25 C-12.45058612 45.62544448 -18.74372393 44.8565938 -25.72265625 43.921875 C-27.48832191 43.69736664 -27.48832191 43.69736664 -29.28965759 43.46832275 C-33.04853109 42.98814767 -36.80546101 42.49430273 -40.5625 42 C-43.02918091 41.68269094 -45.49597711 41.36627678 -47.96289062 41.05078125 C-52.8058185 40.42973935 -57.64768745 39.80128212 -62.48876953 39.16601562 C-67.11334083 38.55934128 -71.73915479 37.96441605 -76.36669922 37.38085938 C-77.43496445 37.24504456 -78.50322968 37.10922974 -79.60386658 36.96929932 C-81.60852886 36.71467533 -83.61353062 36.4627053 -85.61891174 36.21380615 C-86.50062546 36.10103333 -87.38233917 35.9882605 -88.29077148 35.87207031 C-89.05969223 35.77549133 -89.82861298 35.67891235 -90.62083435 35.57940674 C-92.5 35.25 -92.5 35.25 -94.5 34.25 C-94.54422089 34.84989243 -94.58844177 35.44978485 -94.63400269 36.06785583 C-95.96173803 53.8548011 -97.72041704 71.57904359 -99.625 89.3125 C-99.90524527 91.94462982 -100.18519463 94.57679115 -100.46484375 97.20898438 C-101.13983492 103.55635527 -101.81841434 109.90333401 -102.5 116.25 C-88.19504889 115.79809462 -73.98218812 115.22711041 -59.75 113.6875 C-39.10559276 111.47265591 -39.10559276 111.47265591 -30.5 112.25 C-28.00840482 114.74159518 -27.72871652 115.74301338 -27.5 119.25 C-29.23352747 126.41524687 -32.40696105 130.18502198 -38.5 134.25 C-55.39253502 144.20111721 -71.6233544 147.25504601 -91 147.8125 C-92.40886473 147.85577737 -93.81771907 147.89939431 -95.2265625 147.94335938 C-98.6509546 148.04890571 -102.07541292 148.15101798 -105.5 148.25 C-106.5304228 157.58013057 -107.52928651 166.91347827 -108.5 176.25 C-108.5712635 176.93524246 -108.64252701 177.62048492 -108.71595001 178.32649231 C-110.86125173 199.04709026 -112.2123988 219.40704761 -111.5 240.25 C-110.22141113 239.9811499 -108.94282227 239.7122998 -107.62548828 239.43530273 C-90.47041867 235.83889262 -73.30054646 232.31446861 -56.11454391 228.86893654 C-51.77624458 227.9988293 -47.43935865 227.12260712 -43.10498047 226.2331543 C-38.83948482 225.35802903 -34.57121781 224.49790303 -30.30057144 223.648283 C-28.69119464 223.32544867 -27.08286962 222.9973214 -25.47570419 222.66365242 C-23.24536096 222.20157339 -21.01197098 221.75887794 -18.77685547 221.32055664 C-17.51243622 221.06472305 -16.24801697 220.80888947 -14.94528198 220.54530334 C-11.21615085 220.22567061 -8.92347996 220.81492643 -5.5 222.25 C-2.72026821 234.20284669 -6.84743553 248.77608637 -13.20703125 258.9921875 C-17.72945156 265.00237571 -22.06739707 269.34646702 -29.5 271.25 C-33.50430199 271.55227986 -37.50130223 271.5513792 -41.515625 271.55859375 C-43.9691604 271.58174453 -46.4226922 271.60527918 -48.8762207 271.62915039 C-50.16146637 271.63834503 -51.44671204 271.64753967 -52.77090454 271.65701294 C-72.49351252 271.80812375 -92.14436133 272.22235422 -111.8125 273.8125 C-115.13531449 274.07682148 -118.45821742 274.33999697 -121.78125 274.6015625 C-122.54188248 274.66152405 -123.30251495 274.7214856 -124.0861969 274.78326416 C-130.65839059 275.28847388 -137.22012391 275.61052433 -143.8125 275.6875 C-144.66046143 275.70949463 -145.50842285 275.73148926 -146.38208008 275.75415039 C-150.03615469 275.74131543 -152.25954402 275.39640666 -155.40625 273.48046875 C-163.90823118 264.42332088 -163.8119182 250.89108905 -163.5 239.25 C-163.18920584 233.56466947 -162.74491294 227.89413947 -162.27587891 222.2199707 C-162.21023027 221.40742282 -162.14458163 220.59487493 -162.07694364 219.75770438 C-160.45555958 199.72218055 -158.43614415 179.72675017 -156.392097 159.73074508 C-155.86770238 154.59182636 -155.34817644 149.45241505 -154.82803345 144.31306458 C-153.95840345 135.7269035 -153.08581098 127.14104825 -152.2109375 118.55541992 C-150.97863432 106.4621142 -149.75170091 94.36826801 -148.52586055 82.2743057 C-146.88023579 66.04132604 -145.23303581 49.80850407 -143.57985497 33.57629204 C-143.4027507 31.83688004 -143.22578245 30.09745418 -143.04896355 28.35801315 C-141.4087137 12.22495372 -141.4087137 12.22495372 -140.5 4.25 C-139.48777878 4.24191315 -138.47555756 4.23382629 -137.43266296 4.22549438 C-127.71610081 4.14673202 -117.99965688 4.05871412 -108.28325176 3.96247292 C-103.2924575 3.91331385 -98.30167677 3.86700554 -93.31079102 3.828125 C-65.41346002 3.6079897 -37.54992763 3.15300715 -9.76091003 0.4526062 C-6.49935529 0.16032955 -3.27512135 0.0442584 0 0 Z " fill="#FFFFFF" transform="translate(533.5,80.75)"/>
<path d="M0 0 C1.90072266 -0.05607422 1.90072266 -0.05607422 3.83984375 -0.11328125 C7.0625 0.3125 7.0625 0.3125 8.9765625 1.9921875 C12.52161552 9.56686914 9.82226081 18.76954532 7.2578125 26.265625 C4.46418472 33.38663698 1.09748909 40.53894263 -5.9375 44.3125 C-12.89362208 46.14906848 -19.85175115 44.68015384 -26.875 43.75 C-28.28365737 43.57038157 -29.69243423 43.39169821 -31.10131836 43.21386719 C-34.24749745 42.81550559 -37.39295399 42.41191467 -40.53808594 42.00537109 C-46.61956429 41.22173103 -52.70420769 40.46393783 -58.7890625 39.70703125 C-60.99617586 39.43237888 -63.20328849 39.15772068 -65.41040039 38.88305664 C-66.49934601 38.74755402 -67.58829163 38.61205139 -68.7102356 38.47244263 C-74.00638452 37.81248132 -79.30204556 37.14863935 -84.59765625 36.484375 C-85.54295197 36.36580643 -86.48824768 36.24723785 -87.46218872 36.12507629 C-89.62063481 35.85428924 -91.77906892 35.58340665 -93.9375 35.3125 C-94.084506 36.79041519 -94.084506 36.79041519 -94.23448181 38.29818726 C-95.15716976 47.56915202 -96.08399283 56.83969523 -97.01489925 66.10983849 C-97.49338931 70.87607954 -97.97040507 75.64245867 -98.4440918 80.40917969 C-98.90100779 85.00659183 -99.36174376 89.60360634 -99.8251667 94.20036697 C-100.0015724 95.95695923 -100.17658518 97.71369194 -100.35020256 99.47056198 C-100.59301713 101.92525623 -100.84071392 104.37941106 -101.08959961 106.83349609 C-101.16081024 107.56501389 -101.23202087 108.29653168 -101.3053894 109.05021667 C-101.82344784 114.08439568 -101.82344784 114.08439568 -102.9375 116.3125 C-87.04336172 115.93550629 -71.30803336 114.94698409 -55.49829102 113.32885742 C-32.71478232 111.03569355 -32.71478232 111.03569355 -29.1081543 113.62670898 C-27.0924248 116.52944354 -27.53777756 118.88630765 -27.9375 122.3125 C-31.01893039 131.07024954 -40.13077096 135.8911552 -48.0703125 139.890625 C-59.14810971 144.69196791 -70.29844165 147.46037991 -82.40234375 147.41015625 C-83.41960289 147.40803383 -83.41960289 147.40803383 -84.45741272 147.40586853 C-86.59665578 147.40032745 -88.73578925 147.38778653 -90.875 147.375 C-92.33658702 147.36997736 -93.79817569 147.3654158 -95.25976562 147.36132812 C-98.81904526 147.35037745 -102.37826191 147.33315445 -105.9375 147.3125 C-105.9799585 148.24312256 -106.02241699 149.17374512 -106.06616211 150.13256836 C-106.50803732 158.95138396 -107.22802477 167.72016503 -108.12890625 176.50390625 C-108.23890961 177.58602386 -108.34891296 178.66814148 -108.46224976 179.78305054 C-108.91942801 184.26251234 -109.37926928 188.74158762 -109.85620117 193.21899414 C-111.52670714 208.98648954 -112.19789574 224.4613395 -111.9375 240.3125 C-110.76509766 240.07668716 -109.59269531 239.84087433 -108.38476562 239.59791565 C-97.32132332 237.3730499 -86.25726876 235.15125194 -75.19261169 232.93243504 C-69.50456271 231.79169771 -63.81673284 230.6498909 -58.12939453 229.50561523 C-52.63804061 228.4008124 -47.14612336 227.29885121 -41.65380859 226.19883537 C-39.561318 225.77923096 -37.46903035 225.35861314 -35.37695312 224.93695259 C-32.44063944 224.34531752 -29.50361665 223.75733071 -26.56640625 223.17016602 C-25.27706932 222.90906288 -25.27706932 222.90906288 -23.96168518 222.64268494 C-10.1761637 219.8996121 -10.1761637 219.8996121 -5.9375 221.3125 C-2.12833971 228.93082057 -5.4878092 240.67793732 -7.9375 248.3125 C-11.37275883 256.85900756 -15.64860218 265.8394949 -24.30786133 269.88842773 C-29.83483733 271.88896793 -35.29583571 271.73514941 -41.11328125 271.71875 C-43.55509471 271.73897643 -45.99690785 271.75924169 -48.4387207 271.77954102 C-49.71365387 271.78462677 -50.98858704 271.78971252 -52.30215454 271.79495239 C-58.97275908 271.82460227 -65.64253638 271.90244094 -72.3125 271.99609375 C-72.98019724 272.00523237 -73.64789448 272.01437099 -74.33582497 272.02378654 C-86.84767337 272.20476139 -99.27853428 272.89096818 -111.75 273.875 C-115.16523909 274.13836567 -118.58062395 274.3998002 -121.99609375 274.66015625 C-122.77802597 274.71990631 -123.55995819 274.77965637 -124.36558533 274.84121704 C-131.01116139 275.33908988 -137.64789569 275.70257191 -144.3125 275.8125 C-145.15659424 275.84287354 -146.00068848 275.87324707 -146.87036133 275.90454102 C-150.79288412 275.90748364 -152.68711739 275.50416755 -155.8359375 273.09375 C-157.79753736 270.49772937 -159.06748115 268.34983926 -160.1875 265.3125 C-160.50203125 264.4875 -160.8165625 263.6625 -161.140625 262.8125 C-163.02590493 256.89789629 -163.10934214 251.32679742 -163.08911133 245.16577148 C-163.08640889 244.1832437 -163.08370646 243.20071592 -163.08092213 242.18841457 C-163.00869776 232.95758991 -162.37640085 223.84581444 -161.51171875 214.66015625 C-161.33915206 212.75312099 -161.16685999 210.84606086 -160.99479675 208.9389801 C-157.82440498 174.26980449 -154.20760715 139.63905791 -150.68905723 105.0039469 C-149.84546478 96.69729933 -149.00613609 88.39022501 -148.1678198 80.08304352 C-147.25278567 71.01650214 -146.33499564 61.95024182 -145.41589928 52.8841114 C-145.02787698 49.05617095 -144.64079963 45.22813673 -144.25449562 41.40002251 C-143.80279135 36.92511877 -143.34866991 32.45046681 -142.89266014 27.97599983 C-142.72613278 26.33817652 -142.56043547 24.70026858 -142.39562988 23.06227112 C-142.17074544 20.82854411 -141.94285128 18.59514399 -141.71418762 16.36180115 C-141.5875665 15.11352256 -141.46094538 13.86524397 -141.33048725 12.57913876 C-140.99345965 9.77765491 -140.541308 7.06690055 -139.9375 4.3125 C-138.4412912 4.30036972 -138.4412912 4.30036972 -136.91485596 4.28799438 C-127.33105018 4.20916766 -117.7473632 4.12113865 -108.16371536 4.02497292 C-103.24133125 3.97585219 -98.31896053 3.92954652 -93.39648438 3.890625 C-51.62026665 3.60916935 -51.62026665 3.60916935 -9.97514343 0.51853943 C-6.6446205 0.18176851 -3.34797827 0.06564663 0 0 Z " fill="#FFFFFF" transform="translate(340.9375,80.6875)"/>
<path d="M0 0 C1.26714844 -0.02578125 2.53429688 -0.0515625 3.83984375 -0.078125 C7.0625 0.25 7.0625 0.25 8.9765625 1.3984375 C12.00110471 6.55539077 10.51557856 14.11127434 9.3359375 19.6796875 C6.63614267 29.00824687 2.91620818 39.38974491 -6.01074219 44.41772461 C-10.22809106 45.61700241 -13.94351242 45.10053863 -18.265625 44.62890625 C-19.21576477 44.53356094 -20.16590454 44.43821564 -21.14483643 44.33998108 C-34.32896639 42.96852547 -47.47003432 41.20804622 -60.60882568 39.46246338 C-63.42298758 39.090211 -66.23792401 38.72400291 -69.05286789 38.35771847 C-72.42634916 37.91787686 -75.79908011 37.47241869 -79.171875 37.02734375 C-80.42683777 36.86378891 -81.68180054 36.70023407 -82.97479248 36.53172302 C-84.12489807 36.37808792 -85.27500366 36.22445282 -86.45996094 36.06616211 C-87.47282166 35.93229599 -88.48568237 35.79842987 -89.52923584 35.6605072 C-91.9375 35.25 -91.9375 35.25 -93.9375 34.25 C-96.5775 60.98 -99.2175 87.71 -101.9375 115.25 C-80.68776991 115.27872502 -80.68776991 115.27872502 -59.6875 113.75 C-32.87708083 110.88637817 -32.87708083 110.88637817 -29.11230469 113.53320312 C-27.0284807 116.57839229 -27.30603527 119.77694399 -27.9375 123.25 C-33.28818693 134.5687608 -47.67521375 139.9465513 -58.7578125 144.05859375 C-69.43518698 147.34718293 -80.13224016 147.51123082 -91.1875 147.375 C-92.62629577 147.36493849 -94.06509845 147.35581831 -95.50390625 147.34765625 C-98.98191753 147.3259206 -102.45966245 147.29157033 -105.9375 147.25 C-105.9799585 148.18062256 -106.02241699 149.11124512 -106.06616211 150.07006836 C-106.50803732 158.88888396 -107.22802477 167.65766503 -108.12890625 176.44140625 C-108.23890961 177.52352386 -108.34891296 178.60564148 -108.46224976 179.72055054 C-108.91942801 184.20001234 -109.37926928 188.67908762 -109.85620117 193.15649414 C-111.52670714 208.92398954 -112.19789574 224.3988395 -111.9375 240.25 C-110.76509766 240.01418716 -109.59269531 239.77837433 -108.38476562 239.53541565 C-97.32132332 237.3105499 -86.25726876 235.08875194 -75.19261169 232.86993504 C-69.50456271 231.72919771 -63.81673284 230.5873909 -58.12939453 229.44311523 C-52.63804061 228.3383124 -47.14612336 227.23635121 -41.65380859 226.13633537 C-39.561318 225.71673096 -37.46903035 225.29611314 -35.37695312 224.87445259 C-32.44063944 224.28281752 -29.50361665 223.69483071 -26.56640625 223.10766602 C-25.27706932 222.84656288 -25.27706932 222.84656288 -23.96168518 222.58018494 C-10.1761637 219.8371121 -10.1761637 219.8371121 -5.9375 221.25 C-2.56047485 228.00405031 -4.9332987 238.31808233 -6.8984375 245.26953125 C-9.7901638 253.56421985 -13.80294246 262.74657736 -20.9375 268.25 C-27.75423798 271.43947837 -33.69038744 271.67721451 -41.1484375 271.65625 C-43.59537794 271.67647291 -46.04231803 271.6967383 -48.48925781 271.71704102 C-49.76627563 271.72212677 -51.04329346 271.72721252 -52.35900879 271.73245239 C-59.03410024 271.76207985 -65.70836371 271.83979094 -72.3828125 271.93359375 C-73.04968582 271.94273237 -73.71655914 271.95187099 -74.40364075 271.96128654 C-86.70764136 272.13958056 -98.92549488 272.81909249 -111.1875 273.8125 C-114.51026083 274.07362177 -117.83323071 274.33203315 -121.15625 274.58984375 C-121.91932465 274.64918091 -122.68239929 274.70851807 -123.46859741 274.76965332 C-130.20456443 275.28592935 -136.93260236 275.70695401 -143.6875 275.875 C-144.57469727 275.92213135 -145.46189453 275.9692627 -146.37597656 276.01782227 C-149.82824437 276.04811142 -152.0148205 275.98487422 -154.77026367 273.7902832 C-162.23809024 265.43771189 -163.13135931 255.48345743 -163.10823059 244.69483948 C-163.10653864 243.77266146 -163.10484668 242.85048345 -163.10310346 241.90036064 C-163.01877923 231.9238502 -162.16617471 222.056567 -161.20581055 212.13256836 C-161.02295454 210.17023075 -160.84078674 208.20782891 -160.65925884 206.245368 C-160.10034065 200.24543577 -159.52106855 194.24757799 -158.9375 188.25 C-158.84855988 187.33150725 -158.75961976 186.4130145 -158.66798449 185.46668863 C-157.45618595 172.9548061 -156.20135949 160.44745274 -154.93013215 147.94148374 C-154.43769766 143.0920237 -153.94816992 138.24226996 -153.45817566 133.39256287 C-152.64076338 125.30651869 -151.82121631 117.22069324 -151.00024414 109.13500977 C-150.05324669 99.80787437 -149.10966665 90.48039781 -148.1678198 81.15274101 C-147.25233215 72.08678519 -146.33464735 63.02105312 -145.41589928 53.95542717 C-145.02807123 50.12829384 -144.64098166 46.30108691 -144.25449562 42.47381783 C-143.80234006 37.99732931 -143.34825098 33.52104105 -142.89266014 29.04490089 C-142.72630804 27.40748068 -142.56061349 25.76999351 -142.39562988 24.13243484 C-142.17028423 21.89686409 -141.94253828 19.66155031 -141.71418762 17.42628479 C-141.5875665 16.17762918 -141.46094538 14.92897356 -141.33048725 13.6424799 C-140.9650398 10.48773858 -140.49073583 7.37670155 -139.9375 4.25 C-138.4412912 4.23786972 -138.4412912 4.23786972 -136.91485596 4.22549438 C-127.33105018 4.14666766 -117.7473632 4.05863865 -108.16371536 3.96247292 C-103.24133125 3.91335219 -98.31896053 3.86704652 -93.39648438 3.828125 C-51.61968972 3.55244221 -51.61968972 3.55244221 -9.97514343 0.4526062 C-6.64382937 0.12136822 -3.34837072 0.04146589 0 0 Z " fill="#FFFFFF" transform="translate(1352.9375,80.75)"/>
<path d="M0 0 C5.15947346 -0.07440448 10.31863151 -0.12872191 15.47851562 -0.16479492 C17.23215173 -0.17983995 18.98575047 -0.20028104 20.73925781 -0.22631836 C23.26637009 -0.26289121 25.79298296 -0.2797692 28.3203125 -0.29296875 C29.09867462 -0.30845261 29.87703674 -0.32393646 30.6789856 -0.33988953 C35.50328987 -0.34136613 38.88624444 0.20952653 43 3 C46.76172662 7.59343224 46.50253228 12.13527556 46.44506836 17.80151367 C46.43830298 18.83756587 46.43153761 19.87361807 46.42456722 20.94106579 C46.11013075 37.14315293 44.01185277 53.26062864 42.19627881 69.34727502 C41.65681124 74.15514931 41.13327169 78.96475841 40.60813904 83.7742157 C39.61343058 92.86442301 38.6065426 101.95323149 37.59427255 111.04149836 C35.78301228 127.30553741 33.99003567 143.57159146 32.20571464 159.83860654 C31.58136473 165.52579313 30.9508228 171.21224658 30.31486332 176.89814627 C29.91821681 180.45285255 29.52599703 184.00803858 29.13473511 187.56334114 C28.95486273 189.18911557 28.77317007 190.81469002 28.5893383 192.44002151 C27.62354993 200.98687647 26.83439911 209.51980243 26.35655212 218.10905457 C26.31226249 218.87752317 26.26797286 219.64599177 26.22234112 220.4377473 C25.87741987 227.34974097 26.26997229 234.11527717 27 241 C35.89125523 239.53817492 44.62931743 237.52095545 53.39435577 235.45501328 C55.94197955 234.85509444 58.49057388 234.25947332 61.03948975 233.66506958 C68.27816121 231.9766489 75.51577478 230.28379859 82.75097656 228.58056641 C87.19711798 227.5342241 91.6449665 226.49542979 96.09398651 225.46139908 C97.78027185 225.06793519 99.46589904 224.67163901 101.1508255 224.27239609 C103.50552843 223.71468821 105.86228943 223.16662224 108.21972656 222.62060547 C108.90663574 222.45543427 109.59354492 222.29026306 110.30126953 222.12008667 C120.55375741 219.77687871 120.55375741 219.77687871 125 222 C127.78257059 235.09923584 123.43045109 249.70024301 116.625 260.9375 C112.39847118 267.19168124 108.50242934 271.09263786 101 273 C97.17888018 273.2977552 93.36648533 273.30134718 89.53515625 273.30859375 C87.20279575 273.33173965 84.87043908 273.35527437 82.53808594 273.37915039 C80.70739563 273.39294235 80.70739563 273.39294235 78.83972168 273.40701294 C60.25494167 273.55701613 41.76956738 273.95447436 23.25 275.5625 C21.668817 275.69612762 20.08760017 275.82935569 18.50634766 275.9621582 C17.75426025 276.02547836 17.00217285 276.08879852 16.22729492 276.15403748 C15.49873291 276.21535355 14.7701709 276.27666962 14.01953125 276.33984375 C13.31771729 276.39918594 12.61590332 276.45852814 11.89282227 276.51966858 C5.90964065 277.02030415 -0.06041038 277.4519719 -6.0625 277.625 C-6.81821289 277.67213135 -7.57392578 277.7192627 -8.35253906 277.76782227 C-11.29340549 277.79818005 -13.42365151 277.46808009 -15.73242188 275.59301758 C-23.2243204 267.31637212 -24.29377598 257.59801831 -24.2089386 246.88252258 C-24.20438166 245.92058969 -24.19982472 244.95865679 -24.19512969 243.96757442 C-24.08303668 233.74254723 -23.24526633 223.61638141 -22.28198242 213.44213867 C-22.09955999 211.44030995 -21.91775479 209.4384249 -21.73652172 207.43648815 C-21.17530429 201.28927793 -20.59176371 195.1443381 -20 189 C-19.90852833 188.05002026 -19.81705667 187.10004052 -19.72281313 186.12127352 C-18.45831758 173.03475255 -17.13295762 159.95460595 -15.79070306 146.87586236 C-15.26989807 141.79548483 -14.75258837 136.71475092 -14.23466492 131.63407898 C-13.3707447 123.16473436 -12.50399644 114.69568293 -11.63549805 106.22680664 C-10.63260655 96.44700506 -9.63481925 86.66669195 -8.63947898 76.88611919 C-7.77652068 68.40767405 -6.91090432 59.9295034 -6.0430333 51.45155972 C-5.52800342 46.42039274 -5.01388559 41.38913722 -4.50219154 36.35762978 C-4.02507713 31.66759752 -3.54463388 26.97791824 -3.06156158 22.28849602 C-2.88501125 20.56924112 -2.7096358 18.84986513 -2.53550529 17.13036346 C-2.29838574 14.79073849 -2.05707043 12.45158397 -1.81465149 10.11250305 C-1.68065602 8.80338613 -1.54666056 7.4942692 -1.40860462 6.14548206 C-1 3 -1 3 0 0 Z " fill="#FFFFFF" transform="translate(26,79)"/>
<path d="M0 0 C4.58980814 -0.07447267 9.17926014 -0.12875322 13.76953125 -0.16479492 C15.32916394 -0.17982869 16.88875472 -0.20026135 18.44824219 -0.22631836 C20.69737116 -0.26294211 22.94593847 -0.27978021 25.1953125 -0.29296875 C25.8861795 -0.30845261 26.57704651 -0.32393646 27.28884888 -0.33988953 C31.93763499 -0.341485 35.06025037 0.54427349 39 3 C49.12741159 15.3779475 45.73404806 35.5718969 44.40625 50.36132812 C43.62867206 58.04317196 42.71056569 65.70774374 41.78482056 73.37283325 C40.96186395 80.24138622 40.18156498 87.11503714 39.39491272 93.98782349 C39.17119112 95.94147739 38.94692781 97.89506932 38.72215271 99.84860229 C36.30942692 120.83850724 34.08555977 141.84742662 31.875 162.859375 C31.69390654 164.57941575 31.51279997 166.29945512 31.3316803 168.0194931 C29.59147726 184.5487529 27.85732981 201.07864383 26.12924671 217.60917497 C25.43133651 224.28268312 24.73026522 230.95585505 24.02696514 237.62879729 C23.53324988 242.31505352 23.04346159 247.00169781 22.55666971 251.68867803 C22.2576023 254.55940715 21.95489615 257.42974351 21.65111065 260.29997683 C21.44434549 262.26407353 21.24200496 264.22863443 21.03977203 266.19320297 C20.91679497 267.34789204 20.7938179 268.5025811 20.66711426 269.69226074 C20.56173592 270.69966057 20.45635757 271.70706039 20.34778595 272.74498749 C20 275 20 275 19 276 C14.79799588 276.24284787 10.59008323 276.22855021 6.38183594 276.24023438 C4.27237885 276.24989749 2.16391386 276.2808863 0.0546875 276.3125 C-1.29166088 276.31903431 -2.63801624 276.3242831 -3.984375 276.328125 C-5.20866211 276.3374707 -6.43294922 276.34681641 -7.69433594 276.35644531 C-12.34231444 275.85526004 -14.87031732 274.12968268 -18.125 270.875 C-30.93766819 251.22890877 -23.68307067 217.8309457 -21.25390625 196.09765625 C-20.9611674 193.38924695 -20.6731781 190.68033768 -20.38504028 187.97143555 C-19.77614197 182.26878016 -19.15668282 176.56736297 -18.52914429 170.86672974 C-17.63272286 162.72287143 -16.75335555 154.57724234 -15.87882435 146.43100727 C-15.47762431 142.69398118 -15.07582345 138.95701977 -14.67384338 135.22007751 C-14.59441032 134.4816319 -14.51497725 133.74318628 -14.43313712 132.98236352 C-13.87320367 127.78043328 -13.31006541 122.57885612 -12.745224 117.37745667 C-10.82616368 99.70341195 -8.93779124 82.02663838 -7.1015625 64.34375 C-6.99469305 63.31532927 -6.8878236 62.28690853 -6.77771568 61.22732353 C-6.07948105 54.50587044 -5.38324407 47.78421128 -4.6875 41.0625 C-4.06474953 35.04634771 -3.44075815 29.03033032 -2.81289291 23.01470947 C-2.58316138 20.80853482 -2.35550751 18.60215276 -2.12796021 16.39575195 C-1.99251801 15.09863281 -1.85707581 13.80151367 -1.7175293 12.46508789 C-1.60209274 11.35178604 -1.48665619 10.23848419 -1.36772156 9.09144592 C-1.0047856 6.0402327 -0.53058839 3.02616281 0 0 Z " fill="#FFFFFF" transform="translate(915,79)"/>
<path d="M0 0 C5.32238644 7.98357966 2.97605017 19.97023661 1.3203125 29.0390625 C-1.64819321 43.18557565 -7.99123137 58.99748114 -20.25 67.5 C-24.73279474 69.78215005 -30.13320215 70.05395622 -35 69 C-37.55783257 66.69403278 -37.97155044 65.17981858 -38.51171875 61.765625 C-38.56972656 60.60546875 -38.62773438 59.4453125 -38.6875 58.25 C-38.75324219 57.07953125 -38.81898437 55.9090625 -38.88671875 54.703125 C-38.92410156 53.81109375 -38.96148438 52.9190625 -39 52 C-39.49628906 52.73605469 -39.99257812 53.47210938 -40.50390625 54.23046875 C-45.13262032 60.8793047 -49.06303034 66.35434345 -57 69 C-58.66267874 69.14220279 -60.3315173 69.22020567 -62 69.25 C-62.86625 69.27578125 -63.7325 69.3015625 -64.625 69.328125 C-67.46725063 68.93544564 -68.26651988 68.23185565 -70 66 C-71.2077404 63.58451921 -71.23418865 61.81454415 -71.39453125 59.1171875 C-72.76237562 33.61581945 -72.76237562 33.61581945 -84.875 11.8125 C-87 9 -87 9 -87 5.75 C-86 3 -86 3 -83 1 C-78.46757164 0.48827422 -76.18567388 0.2555071 -72.3125 2.6875 C-61.32004634 16.04869789 -61.60832799 38.61709793 -61 55 C-55.27750454 54.18022666 -51.26587937 52.92754111 -47.58203125 48.16796875 C-43.2150915 41.47028697 -40.89828761 35.04382784 -42 27 C-43.46750668 22.61916726 -45.57695827 18.70961839 -47.9375 14.75 C-49 12 -49 12 -47.875 9.25 C-45.6437516 6.57250192 -43.99543963 5.14931594 -40.5 4.625 C-38 5 -38 5 -36.47363281 6.63623047 C-30.4913324 16.23209405 -30.10260312 28.88117032 -29.25 39.875 C-29.12496826 41.3529726 -28.99867207 42.83083879 -28.87109375 44.30859375 C-28.56621629 47.87129444 -28.27821686 51.43510605 -28 55 C-21.73825618 54.18175287 -19.55517697 52.27547908 -15.68359375 47.3125 C-9.47200022 38.41230629 -8.05894896 27.62924864 -9 17 C-9.52389954 14.59543545 -10.24805931 12.34981465 -11 10 C-11.4375 6.8125 -11.4375 6.8125 -11 4 C-7.64711758 0.25266082 -4.97883082 -0.77448479 0 0 Z " fill="#FFFFFF" transform="translate(1231,422)"/>
<path d="M0 0 C2.63464168 3.56608066 2.26187994 7.57284364 2.1875 11.8125 C2.18685547 12.49892578 2.18621094 13.18535156 2.18554688 13.89257812 C2.14760142 18.34906121 1.7185823 22.60227635 1 27 C2.24652344 26.83628906 3.49304688 26.67257812 4.77734375 26.50390625 C10.3795572 25.88143809 15.93205157 25.88905802 21.5625 25.9375 C23.07553711 25.94426758 23.07553711 25.94426758 24.61914062 25.95117188 C27.07949147 25.96283231 29.53971239 25.97919622 32 26 C31.688288 23.47906702 31.37565098 20.9582543 31.0625 18.4375 C30.93198242 17.38079102 30.93198242 17.38079102 30.79882812 16.30273438 C30.24615509 11.86088073 29.64605404 7.42925336 29 3 C32.59258142 0.10841007 34.17748885 -1.05306524 38.875 -0.75 C39.90625 -0.5025 40.9375 -0.255 42 0 C44.17970362 4.32587333 44.12932993 8.04210006 43.75 12.75 C43.6991626 13.4922583 43.6483252 14.2345166 43.59594727 14.99926758 C43.21020245 20.25192756 42.60165628 25.46400061 41.9375 30.6875 C39.78641468 46.00987361 39.78641468 46.00987361 45 60 C45.0625 62.75 45.0625 62.75 44 65 C41.06268802 67.58127417 38.61970458 68.20174496 34.8125 68.3125 C31 68 31 68 29 66 C28.734375 63.19921875 28.734375 63.19921875 28.75 59.6875 C28.74226563 57.99173828 28.74226563 57.99173828 28.734375 56.26171875 C29.09538059 50.46970254 30.11757328 44.73577369 31 39 C20.77 39 10.54 39 0 39 C0.33 47.58 0.66 56.16 1 65 C-4.02400987 68.01440592 -5.46379322 68.32565922 -11 68 C-12.9055686 64.8282819 -13.16499869 62.97143517 -12.57421875 59.33984375 C-12.43693359 58.46392578 -12.29964844 57.58800781 -12.15820312 56.68554688 C-12.00287109 55.77869141 -11.84753906 54.87183594 -11.6875 53.9375 C-11.54376953 53.02677734 -11.40003906 52.11605469 -11.25195312 51.17773438 C-10.68542746 47.66734474 -10.12648828 44.37946484 -9 41 C-10.32 40.67 -11.64 40.34 -13 40 C-12.69201674 38.51988629 -12.378482 37.04092675 -12.0625 35.5625 C-11.88847656 34.73878906 -11.71445312 33.91507812 -11.53515625 33.06640625 C-11 31 -11 31 -10 30 C-9.44990411 21.61103769 -9.69205573 14.76647786 -13 7 C-13.0625 4.1875 -13.0625 4.1875 -12 2 C-7.83156424 -0.908211 -4.85381363 -1.65470919 0 0 Z " fill="#FFFFFF" transform="translate(1016,423)"/>
<path d="M0 0 C4.17795159 7.86188864 2.15377968 18.49087485 1 27 C2.24652344 26.83628906 3.49304688 26.67257812 4.77734375 26.50390625 C10.3795572 25.88143809 15.93205157 25.88905802 21.5625 25.9375 C23.07553711 25.94426758 23.07553711 25.94426758 24.61914062 25.95117188 C27.07949147 25.96283231 29.53971239 25.97919622 32 26 C31.80083984 24.515 31.80083984 24.515 31.59765625 23 C30.70559299 16.33650664 29.81712495 9.67318713 29 3 C32.59258142 0.10841007 34.17748885 -1.05306524 38.875 -0.75 C39.90625 -0.5025 40.9375 -0.255 42 0 C43.80651106 4.57186261 44.15612361 7.99082921 43.75 12.875 C43.6991626 13.52355957 43.6483252 14.17211914 43.59594727 14.84033203 C43.20272929 19.54202305 42.58202799 24.20101282 41.9375 28.875 C41.16250514 34.64931771 40.75864895 40.3608419 40.6875 46.1875 C40.67001709 46.89438965 40.65253418 47.6012793 40.63452148 48.32958984 C40.63936723 52.79736987 41.49737099 55.34629098 44 59 C44.5 62.125 44.5 62.125 44 65 C41.13634808 67.68467367 38.61455065 68.19476801 34.8125 68.3125 C31 68 31 68 29 66 C28.734375 62.9453125 28.734375 62.9453125 28.75 59.125 C28.74226562 57.27261719 28.74226562 57.27261719 28.734375 55.3828125 C29.06787883 49.87999929 30.09368316 44.43790105 31 39 C20.77 39 10.54 39 0 39 C0.33 47.58 0.66 56.16 1 65 C-3.99424181 67.99654508 -5.46923329 68.52177044 -11 68 C-11.66 67.34 -12.32 66.68 -13 66 C-12.95166016 63.56982422 -12.95166016 63.56982422 -12.5390625 60.5546875 C-12.39726563 59.47832031 -12.25546875 58.40195312 -12.109375 57.29296875 C-11.94953125 56.16503906 -11.7896875 55.03710938 -11.625 53.875 C-11.47289062 52.73933594 -11.32078125 51.60367188 -11.1640625 50.43359375 C-10.78588602 47.62090617 -10.39745909 44.81001682 -10 42 C-10.99 41.67 -11.98 41.34 -13 41 C-12.24403927 33.44039271 -12.24403927 33.44039271 -10.98046875 31.16015625 C-8.61703895 25.95307784 -9.08204871 18.11997315 -10.67578125 12.703125 C-11.41547045 11.11857752 -12.2047339 9.55739612 -13 8 C-13.1875 5.0625 -13.1875 5.0625 -13 3 C-5.28735126 -2.09034817 -5.28735126 -2.09034817 0 0 Z " fill="#FFFFFF" transform="translate(635,423)"/>
<path d="M0 0 C5.85085807 5.36192843 8.45841871 13.3955606 8.953125 21.1015625 C9.12574132 33.84640054 6.95578108 45.67088723 -2 55.1875 C-10.05963261 62.85544953 -18.48434117 64.41263853 -29.28125 64.21484375 C-35.96817921 63.7475485 -39.30974802 61.79151856 -44.0625 57.25 C-49.6505313 48.78812404 -50.60629242 39.77112718 -48.640625 29.8671875 C-47.53873265 25.6507627 -46.30197281 21.79164023 -44.25 17.9375 C-45.57 17.9375 -46.89 17.9375 -48.25 17.9375 C-49.8047669 14.82796621 -49.53644437 12.37483239 -49.25 8.9375 C-45.97474771 2.11405772 -40.02870288 -1.10130513 -33.25 -3.875 C-22.29758084 -7.20255791 -9.63243648 -6.11289238 0 0 Z M-32.25 9.9375 C-33.91509776 12.84239725 -33.91509776 12.84239725 -35.375 16.3125 C-35.89320313 17.47523438 -36.41140625 18.63796875 -36.9453125 19.8359375 C-39.79896327 26.61976598 -40.92341134 34.33561881 -38.34375 41.4296875 C-35.38278085 46.45953894 -31.77920589 50.00167937 -25.99609375 51.53515625 C-19.33743419 52.60846131 -14.04569335 51.35097776 -8.25 47.9375 C-3.1030983 43.76333809 -0.64259892 37.66987876 0.03515625 31.2265625 C0.266604 23.88061211 -1.0074536 19.33998419 -5.0625 13.1875 C-12.94312727 5.08171196 -22.55257837 6.70502612 -32.25 9.9375 Z " fill="#FFFFFF" transform="translate(803.25,427.0625)"/>
<path d="M0 0 C0.70036377 0.00418945 1.40072754 0.00837891 2.12231445 0.01269531 C9.87847465 0.18156134 16.57541483 1.60875969 22.125 7.3125 C28.94564101 16.24097759 29.93881863 25.3259485 29.125 36.3125 C27.37313075 47.48066648 23.13753302 57.18760223 14.125 64.3125 C5.39540088 69.60170462 -2.90331298 70.00934033 -12.875 69.3125 C-18.81322955 67.78427916 -22.50284916 64.41889984 -25.875 59.3125 C-31.60032437 47.70024936 -28.7672357 35.9892071 -24.875 24.3125 C-26.195 23.6525 -27.515 22.9925 -28.875 22.3125 C-29.17664828 17.93859992 -29.27540117 15.22250265 -27.5 11.1875 C-20.21466203 3.20832032 -10.66190467 -0.08734002 0 0 Z M-11.875 15.3125 C-13.27373861 17.42454217 -13.27373861 17.42454217 -14.4375 20 C-14.85128906 20.84949219 -15.26507812 21.69898438 -15.69140625 22.57421875 C-19.23768239 30.77863978 -20.53910069 39.13529785 -17.75 47.8125 C-14.05770296 52.73556272 -9.97950045 56.13855761 -3.875 57.3125 C3.1511618 57.51358544 8.8507705 56.09446808 14.125 51.3125 C19.81926933 44.17341607 21.00150384 37.3210117 20.125 28.3125 C18.52789609 22.58375772 16.26922247 18.52763904 11.125 15.3125 C10.2278125 14.7246875 10.2278125 14.7246875 9.3125 14.125 C1.56456253 11.24719465 -4.2976077 12.78670257 -11.875 15.3125 Z " fill="#FFFFFF" transform="translate(716.875,421.6875)"/>
<path d="M0 0 C0.80904785 -0.01305176 1.6180957 -0.02610352 2.45166016 -0.03955078 C6.74081555 -0.04583329 10.02650312 0.19659012 13.9375 2.1875 C14.36595283 5.8721943 14.25751539 7.69293077 12.21875 10.84375 C7.93939482 14.86793866 1.62741684 13.97225672 -3.875 14 C-5.62973633 14.03770508 -5.62973633 14.03770508 -7.41992188 14.07617188 C-10.30042046 14.13495756 -13.18149656 14.16411178 -16.0625 14.1875 C-16.3925 18.8075 -16.7225 23.4275 -17.0625 28.1875 C-9.1425 28.1875 -1.2225 28.1875 6.9375 28.1875 C8.13657441 32.98379764 7.36239478 34.05619778 4.9375 38.1875 C2.9375 40.1875 2.9375 40.1875 0.69091797 40.41455078 C-0.22028809 40.40407715 -1.13149414 40.39360352 -2.0703125 40.3828125 C-3.05644531 40.37636719 -4.04257813 40.36992187 -5.05859375 40.36328125 C-6.09113281 40.34652344 -7.12367187 40.32976562 -8.1875 40.3125 C-9.22777344 40.30347656 -10.26804687 40.29445313 -11.33984375 40.28515625 C-13.91429092 40.26153747 -16.48828212 40.22860149 -19.0625 40.1875 C-19.11687607 41.77044782 -19.15546271 43.35394256 -19.1875 44.9375 C-19.22230469 46.26007813 -19.22230469 46.26007813 -19.2578125 47.609375 C-19.04994778 50.35318926 -18.57754178 51.90427251 -17.0625 54.1875 C-12.72928691 56.20758783 -9.21285826 56.36037748 -4.5 55.9375 C-3.40558594 55.84984375 -2.31117187 55.7621875 -1.18359375 55.671875 C1.81429942 55.20661999 4.15923802 54.36181692 6.9375 53.1875 C9.75 53.0625 9.75 53.0625 11.9375 53.1875 C13.37466841 55.4700616 13.9375 56.90493071 13.9375 59.625 C12.54139881 63.20250931 10.21316364 65.32781048 6.9375 67.1875 C1.35550135 69.2020559 -3.70843524 69.52312032 -9.5625 69.5 C-10.37847656 69.51611328 -11.19445313 69.53222656 -12.03515625 69.54882812 C-17.4705504 69.5531904 -21.24516332 68.73931917 -26.0625 66.1875 C-30.08291946 62.03306656 -30.27621323 57.59922733 -30.23046875 51.97265625 C-30.033778 48.71124913 -29.55382114 45.54267516 -29.0625 42.3125 C-27.75567534 33.26596025 -27.8857631 24.30908773 -28.0625 15.1875 C-29.0525 15.1875 -30.0425 15.1875 -31.0625 15.1875 C-31.36737805 6.04115854 -31.36737805 6.04115854 -29.0625 3.1875 C-20.45339199 -0.97178486 -9.40340695 0.08866018 0 0 Z " fill="#FFFFFF" transform="translate(1349.0625,421.8125)"/>
<path d="M0 0 C0.81291504 -0.01305176 1.62583008 -0.02610352 2.46337891 -0.03955078 C6.76869453 -0.04581501 10.07555105 0.18571455 14 2.1875 C14.33799912 5.82099052 14.29240214 7.70905155 12.36425781 10.86401367 C10 13.1875 10 13.1875 7.15917969 13.75512695 C5.55671387 13.71585083 5.55671387 13.71585083 3.921875 13.67578125 C2.18164062 13.65161133 2.18164062 13.65161133 0.40625 13.62695312 C-0.8003125 13.58505859 -2.006875 13.54316406 -3.25 13.5 C-5.08304688 13.46616211 -5.08304688 13.46616211 -6.953125 13.43164062 C-9.96998502 13.37271758 -12.98437515 13.29049265 -16 13.1875 C-15.979375 14.363125 -15.95875 15.53875 -15.9375 16.75 C-15.86718773 20.75779937 -16.41131419 24.06669936 -17 28.1875 C-9.08 28.1875 -1.16 28.1875 7 28.1875 C8.08941405 33.63457024 7.77395168 34.66698616 5 39.1875 C2.49502996 40.43998502 0.79146726 40.30124406 -2.0078125 40.28515625 C-2.99394531 40.28193359 -3.98007812 40.27871094 -4.99609375 40.27539062 C-6.02863281 40.26701172 -7.06117188 40.25863281 -8.125 40.25 C-9.68541016 40.24323242 -9.68541016 40.24323242 -11.27734375 40.23632812 C-13.85161962 40.22451952 -16.42578146 40.20805075 -19 40.1875 C-19.01289062 41.43789063 -19.02578125 42.68828125 -19.0390625 43.9765625 C-19.04631348 44.67990723 -19.05356445 45.38325195 -19.06103516 46.10791016 C-18.96994896 49.21139905 -18.4421218 51.43435837 -17 54.1875 C-11.79309803 56.91492484 -6.0391512 56.99020711 -0.44140625 55.51171875 C1.24923668 54.98166577 2.93260566 54.42749544 4.60546875 53.84375 C7.24241729 53.12106264 9.28171964 52.85856523 12 53.1875 C14.18038095 56.45807143 14.63246755 57.39269469 14 61.1875 C10.28055166 66.22675259 5.86091352 67.7419189 0 69.1875 C-3.20234716 69.5943139 -6.33743667 69.65377185 -9.5625 69.625 C-10.36107422 69.64498047 -11.15964844 69.66496094 -11.98242188 69.68554688 C-17.5961943 69.68097167 -22.47359297 68.69479769 -27 65.1875 C-30.75836006 59.11744094 -30.10902755 52.27361427 -29.125 45.5 C-27.76147145 35.42707604 -27.3770333 25.33763338 -27 15.1875 C-28.32 15.1875 -29.64 15.1875 -31 15.1875 C-31.29130874 10.23525141 -31.22986308 7.08561061 -28 3.1875 C-19.58533799 -0.8962997 -9.16965037 0.08619084 0 0 Z " fill="#FFFFFF" transform="translate(902,421.8125)"/>
<path d="M0 0 C0.80904785 -0.01305176 1.6180957 -0.02610352 2.45166016 -0.03955078 C6.74081555 -0.04583329 10.02650312 0.19659012 13.9375 2.1875 C13.45145022 8.50614713 13.45145022 8.50614713 11.27050781 11.39746094 C8.27117742 13.69874709 6.60865053 13.65164021 2.859375 13.578125 C1.69921875 13.56523437 0.5390625 13.55234375 -0.65625 13.5390625 C-1.8628125 13.50554687 -3.069375 13.47203125 -4.3125 13.4375 C-6.14554688 13.41042969 -6.14554688 13.41042969 -8.015625 13.3828125 C-11.03158455 13.33568813 -14.04714119 13.26394572 -17.0625 13.1875 C-17.0625 18.1375 -17.0625 23.0875 -17.0625 28.1875 C-9.1425 28.1875 -1.2225 28.1875 6.9375 28.1875 C8.34003926 32.39511779 6.84352531 34.30485584 4.9375 38.1875 C2.9375 40.1875 2.9375 40.1875 0.69091797 40.41455078 C-0.22028809 40.40407715 -1.13149414 40.39360352 -2.0703125 40.3828125 C-3.05644531 40.37636719 -4.04257813 40.36992187 -5.05859375 40.36328125 C-6.09113281 40.34652344 -7.12367187 40.32976562 -8.1875 40.3125 C-9.22777344 40.30347656 -10.26804687 40.29445313 -11.33984375 40.28515625 C-13.91429092 40.26153747 -16.48828212 40.22860149 -19.0625 40.1875 C-19.11687607 41.77044782 -19.15546271 43.35394256 -19.1875 44.9375 C-19.22230469 46.26007813 -19.22230469 46.26007813 -19.2578125 47.609375 C-19.04994778 50.35318926 -18.57754178 51.90427251 -17.0625 54.1875 C-12.72928691 56.20758783 -9.21285826 56.36037748 -4.5 55.9375 C-3.40558594 55.84984375 -2.31117187 55.7621875 -1.18359375 55.671875 C1.81429942 55.20661999 4.15923802 54.36181692 6.9375 53.1875 C9.75 53.0625 9.75 53.0625 11.9375 53.1875 C13.37466841 55.4700616 13.9375 56.90493071 13.9375 59.625 C12.54139881 63.20250931 10.21316364 65.32781048 6.9375 67.1875 C1.35550135 69.2020559 -3.70843524 69.52312032 -9.5625 69.5 C-10.37847656 69.51611328 -11.19445313 69.53222656 -12.03515625 69.54882812 C-17.4705504 69.5531904 -21.24516332 68.73931917 -26.0625 66.1875 C-30.06370218 62.05292442 -30.27614668 57.64308267 -30.23046875 52.04296875 C-30.02661836 48.57751219 -29.54481143 45.18775169 -29.0625 41.75 C-27.82184077 32.887234 -27.87642405 24.11914564 -28.0625 15.1875 C-29.0525 15.1875 -30.0425 15.1875 -31.0625 15.1875 C-31.36737805 6.04115854 -31.36737805 6.04115854 -29.0625 3.1875 C-20.45339199 -0.97178486 -9.40340695 0.08866018 0 0 Z " fill="#FFFFFF" transform="translate(1100.0625,421.8125)"/>
<path d="M0 0 C2 2 2 2 2.375 5.9375 C2.29081697 8.8365531 2.24906476 9.69345876 0.375 12 C-3.23407827 13.5196119 -6.15621026 13.66560045 -9.8828125 12.3203125 C-10.54023437 12.04960937 -11.19765625 11.77890625 -11.875 11.5 C-17.09989385 9.40205027 -21.58297244 9.02290375 -26.9375 11.1875 C-29.43253722 13.38010847 -29.73593684 14.74322102 -30 18 C-25.2359739 21.54248095 -20.6587547 23.30050601 -15 25 C-2.27129535 28.82281229 -2.27129535 28.82281229 1.3515625 33.890625 C3.14093382 39.71147146 2.97061812 46.72627938 0.5 52.3125 C-3.5305421 59.14875515 -9.62445216 63.37689721 -17 66 C-19.75225407 66.30580601 -22.19941962 66.4778479 -24.9375 66.4375 C-25.6389917 66.43210205 -26.3404834 66.4267041 -27.06323242 66.42114258 C-33.52437812 66.23117513 -37.72497943 64.82489926 -42.6484375 60.578125 C-44.88140603 57.97084383 -44.82431177 55.33807641 -45 52 C-44.3125 49.625 -44.3125 49.625 -43 48 C-41.19921875 47.25 -41.19921875 47.25 -39 47 C-36.78125 47.9609375 -36.78125 47.9609375 -34.5 49.375 C-28.75830382 52.89473841 -23.69331336 53.68322749 -17 53 C-13.19160717 51.47797806 -13.19160717 51.47797806 -10 49 C-9.95907063 46.66702567 -9.95758277 44.33294775 -10 42 C-15.35804065 39.77143442 -20.71328052 37.74406664 -26.25 36 C-32.4740369 33.95461689 -37.44458932 31.77754235 -41 26 C-42.02024556 19.56601901 -41.61456541 13.33152472 -38.25390625 7.67578125 C-29.35556534 -4.21639399 -12.89363777 -6.44681889 0 0 Z " fill="#FFFFFF" transform="translate(1308,425)"/>
<path d="M0 0 C2.0625 1.8125 2.0625 1.8125 3 4 C2.87177883 7.14141856 2.4995896 9.21117432 0.8125 11.875 C-1.97391865 13.60450123 -3.74288764 13.36190137 -7 13 C-8.46737104 12.52718044 -9.92542348 12.02484667 -11.375 11.5 C-16.84322581 9.56678886 -21.422394 8.90314638 -26.9375 11.25 C-29.06405431 12.8429924 -29.06405431 12.8429924 -30.0625 14.9375 C-30.18691283 17.11006201 -30.18691283 17.11006201 -28.64453125 18.9140625 C-24.04391248 22.54291098 -18.35616357 23.63588086 -12.796875 25.26757812 C-7.11178378 27.02705749 -3.2287098 28.76440305 1 33 C3.36412246 37.72824492 2.56265463 43.88741702 2 49 C-0.42893341 55.60149401 -4.64093515 60.87259106 -11 64 C-15.63432776 65.87232153 -19.91927582 66.38672814 -24.875 66.375 C-25.58100342 66.37338867 -26.28700684 66.37177734 -27.0144043 66.37011719 C-33.81648081 66.20990202 -37.86549263 64.74269395 -43 60.25 C-44.5978865 56.65475538 -44.37393127 53.92627828 -44 50 C-42.8125 47.9375 -42.8125 47.9375 -41 47 C-37.22453778 47.45840351 -34.52435115 48.68456331 -31.25 50.5625 C-26.35563564 53.0752317 -22.44557719 53.96833399 -17 53 C-12.93337338 51.44728802 -11.42480398 50.63720598 -9 47 C-8.84525388 44.43810155 -8.84525388 44.43810155 -10 42 C-15.06941544 39.02480953 -20.46368282 37.54961109 -26.078125 35.98242188 C-31.51887815 34.37823035 -36.04169383 32.21941366 -39.875 27.875 C-41.81678071 22.91267151 -41.83972205 17.94694906 -40.37890625 12.8203125 C-37.45994019 6.15209669 -31.91854724 1.05128247 -25.3125 -1.9375 C-17.0184543 -4.57130938 -7.68212082 -3.98332191 0 0 Z " fill="#FFFFFF" transform="translate(861,425)"/>
<path d="M0 0 C1.86746354 2.33432942 2.01366118 3.46721401 1.9375 6.4375 C0.64765247 9.96308326 -1.04379063 11.71565639 -4 14 C-6.64280589 14 -8.52172478 13.20428354 -10.9296875 12.17578125 C-17.34261213 9.65397281 -22.48751948 9.58299692 -29 12 C-34.05399873 15.030734 -37.89456644 18.91132125 -39.59765625 24.6328125 C-40.86497473 32.0890746 -41.24398424 39.74016478 -37.2734375 46.4140625 C-34.3928384 50.00155708 -30.57813118 52.44507501 -26 53 C-19.03760769 53.68258748 -13.22376523 51.50737295 -7.75 47.25 C-5.43136664 45.59383331 -3.78100453 45.76824962 -1 46 C-0.46245185 51.26797191 -1.09825975 54.29179237 -4.3046875 58.359375 C-11.21910862 65.05075028 -19.02067557 66.30467888 -28.28100586 66.31469727 C-34.84471718 66.18009379 -38.88768233 64.8196456 -43.703125 60.45703125 C-49.7348635 54.0592892 -51.55524409 46.88269755 -51.4375 38.25 C-51.42992676 37.4657666 -51.42235352 36.6815332 -51.41455078 35.87353516 C-51.04657483 22.77412855 -46.04316383 13.71693058 -36.8125 4.75 C-27.14673933 -3.43367736 -11.28616015 -7.18210191 0 0 Z " fill="#FFFFFF" transform="translate(615,425)"/>
<path d="M0 0 C1.49333862 -0.00688843 1.49333862 -0.00688843 3.0168457 -0.01391602 C3.96261475 -0.01190186 4.90838379 -0.0098877 5.8828125 -0.0078125 C7.14569092 -0.00612061 7.14569092 -0.00612061 8.43408203 -0.00439453 C10.99577866 0.13140255 13.37496314 0.56317516 15.875 1.125 C16.27061487 5.16027165 16.19907387 7.52670978 14.25 11.125 C8.74053904 14.38986576 3.03887955 12.96742467 -3.125 12.125 C-4.28730961 23.4822487 -5.32589118 34.82726695 -5.4375 46.25 C-5.45490234 47.07145508 -5.47230469 47.89291016 -5.49023438 48.73925781 C-5.48624375 53.50206694 -4.86010949 56.09469316 -2.125 60.125 C-2.1875 63.8125 -2.1875 63.8125 -3.125 67.125 C-5.5441378 69.35060678 -8.08640102 69.26591038 -11.25 69.375 C-15.125 69.125 -15.125 69.125 -17.125 67.125 C-17.92528874 57.6863004 -16.8723681 48.49968972 -15.57421875 39.1640625 C-14.50374619 30.57083876 -14.48995974 21.62720937 -16.125 13.125 C-17.41277344 13.28097656 -18.70054687 13.43695313 -20.02734375 13.59765625 C-21.70569552 13.79455785 -23.38408281 13.99115686 -25.0625 14.1875 C-26.33770508 14.3431543 -26.33770508 14.3431543 -27.63867188 14.50195312 C-28.44755859 14.59541016 -29.25644531 14.68886719 -30.08984375 14.78515625 C-30.8387085 14.87418213 -31.58757324 14.96320801 -32.35913086 15.05493164 C-32.94186768 15.0780542 -33.52460449 15.10117676 -34.125 15.125 C-34.455 14.795 -34.785 14.465 -35.125 14.125 C-35.109375 12.1640625 -35.109375 12.1640625 -34.875 9.75 C-34.77445313 8.56277344 -34.77445313 8.56277344 -34.671875 7.3515625 C-34.0185685 4.69167175 -33.30595321 3.75571272 -31.125 2.125 C-21.86306649 -1.24481023 -9.75468549 0.02537679 0 0 Z " fill="#FFFFFF" transform="translate(983.125,421.875)"/>
<path d="M0 0 C5.91262212 7.65162862 3.03534184 19.33380658 2 28.375 C-0.46272135 45.41932656 -0.46272135 45.41932656 5 61 C5.0625 63.75 5.0625 63.75 4 66 C1.08153279 68.48928085 -0.79433092 68.97872389 -4.625 69.375 C-8 69 -8 69 -9.69140625 67.80078125 C-13.55232812 62.48769175 -10.86443156 52.67602094 -10 46.625 C-9.06139893 39.9149128 -8.74633255 33.27366273 -8.6875 26.5 C-8.66139648 25.12062256 -8.66139648 25.12062256 -8.63476562 23.71337891 C-8.63910613 17.75278153 -9.69286836 13.48476414 -12 8 C-12 5.1875 -12 5.1875 -11 3 C-7.48492229 0.08750704 -4.51325937 -0.78491467 0 0 Z " fill="#FFFFFF" transform="translate(1253,422)"/>
</svg>
