<svg xmlns="http://www.w3.org/2000/svg" version="1.1" xmlns:xlink="http://www.w3.org/1999/xlink" xmlns:svgjs="http://svgjs.dev/svgjs" width="128" height="128" viewBox="0 0 128 128"><g transform="matrix(0.4364406779661017,0,0,0.4364406779661017,35.748910069145964,12.33387096774193)"><svg viewBox="0 0 84 155" data-background-color="#ffffff" preserveAspectRatio="xMidYMid meet" height="236" width="128" xmlns="http://www.w3.org/2000/svg" xmlns:xlink="http://www.w3.org/1999/xlink"><g id="tight-bounds" transform="matrix(1,0,0,1,0.47949080622348106,0.25)"><svg viewBox="0 0 83.04101838755304 154.5" height="154.5" width="83.04101838755304"><g><svg viewBox="0 0 83.04101838755304 154.5" height="154.5" width="83.04101838755304"><g><svg viewBox="0 0 83.04101838755304 154.5" height="154.5" width="83.04101838755304"><g id="textblocktransform"><svg viewBox="0 0 83.04101838755304 154.5" height="154.5" width="83.04101838755304" id="textblock"><g><svg viewBox="0 0 83.04101838755304 154.5" height="154.5" width="83.04101838755304"><g transform="matrix(1,0,0,1,0,0)"><svg width="83.04101838755304" viewBox="2.8 -34.75 19 35.35" height="154.5" data-palette-color="#6575a8"><path d="M4.65 0.6L4.65 0.6Q3.75 0.6 3.28-0.5 2.8-1.6 2.8-2.95L2.8-2.95Q2.8-4.9 3.25-9.3L3.25-9.3 5.85-34.75 9.85-34.75Q11.45-34.75 11.6-33.48 11.75-32.2 11.4-29.15L11.4-29.15 9.1-7.95Q9-6.9 9-5.85 9-4.8 9.15-3.75L9.15-3.75 19.9-6.25Q20.45-6.35 20.75-6.43 21.05-6.5 21.2-6.5L21.2-6.5Q21.8-6.5 21.8-5.8L21.8-5.8Q21.8-4.55 21.38-3.2 20.95-1.85 20.2-0.93 19.45 0 18.35 0L18.35 0 16.85 0Q13.1 0 10.73 0.15 8.35 0.3 6.95 0.45 5.55 0.6 4.65 0.6Z" opacity="1" transform="matrix(1,0,0,1,0,0)" fill="#6575a8" class="wordmark-text-0" data-fill-palette-color="primary" id="text-0"></path></svg></g></svg></g></svg></g></svg></g></svg></g><defs></defs></svg><rect width="83.04101838755304" height="154.5" fill="none" stroke="none" visibility="hidden"></rect></g></svg></g></svg>